<svg xmlns="http://www.w3.org/2000/svg" viewBox="0 0 256 100"><path fill="#662482" d="M20.05 0h215.9C247.01 0 256 8.99 256 20.07v59.86c0 11.08-8.98 20.07-20.05 20.07H20.05C8.99 100 0 91.01 0 79.93V20.07C0 8.99 8.98 0 20.05 0Z"/><path fill="#fff" d="M236.71 36.6c-4.47.25-8.21 1.51-11.03 3.74-1.1.86-2.69.16-2.69-1.24v-.24c0-.9-.73-1.63-1.63-1.63h-9.14c-.9 0-1.63.73-1.63 1.63v41.53c0 .9.73 1.63 1.63 1.63h9.72c.9 0 1.63-.73 1.63-1.63V60.88c0-8.58 4.75-12.49 11.91-12.49.42 0 .8 0 1.19.04.94.06 1.72-.69 1.72-1.63v-8.55c0-.92-.76-1.69-1.68-1.63v-.02Zm-35.58 35.87c-.34-.9-1.36-1.25-2.24-.87-1.13.49-2.4.75-3.68.75-3.5 0-5.58-2.08-5.58-5.91V39.83c0-.89.72-1.62 1.62-1.62h7.92c.89 0 1.62-.72 1.62-1.62v-6.76c0-.89-.72-1.62-1.62-1.62h-7.92c-.89 0-1.62-.72-1.62-1.62v-7.67c0-.89-.72-1.62-1.62-1.62h-9.75c-.89 0-1.62.72-1.62 1.62v7.67c0 .89-.72 1.62-1.62 1.62h-3.67c-.89 0-1.62.72-1.62 1.62v6.76c0 .89.72 1.62 1.62 1.62h3.67c.89 0 1.62.72 1.62 1.62V66.6c0 10.66 6.16 16.07 16.74 16.07 3.42 0 6.77-.67 9.34-2.06.72-.39 1.05-1.25.76-2.02l-2.34-6.13h-.01Zm-61.81-21.93c0-2.33 2.5-4.16 8.33-4.16 3.63 0 7.52.66 11.43 2.56.81.39 1.79.09 2.17-.73l2.96-6.32c.39-.82.03-1.79-.79-2.18-4.25-2.02-10.28-3.15-15.78-3.15-13.07 0-20.73 5.99-20.73 14.49 0 17.9 27.06 10.41 27.06 17.74 0 2.5-2.25 4.08-8.24 4.08-4.85 0-10.16-1.36-14.09-3.46-.83-.44-1.84-.1-2.24.75l-2.95 6.36c-.37.79-.06 1.72.7 2.14 4.34 2.35 11.24 4.04 18.07 4.04 13.4 0 21.15-5.91 21.15-14.24 0-17.65-27.06-10.24-27.06-17.9v-.02ZM96.94 36.55c-14.24 0-24.65 9.57-24.65 23.06S82.7 82.67 96.94 82.67s24.56-9.57 24.56-23.06-10.32-23.06-24.56-23.06Zm11.85 30.29c-1.79 6.73-8.78 10.73-15.61 8.91-6.83-1.81-10.92-8.74-9.13-15.48 1.79-6.73 10.93-18.86 17.77-17.04 6.83 1.81 8.76 16.87 6.97 23.61Zm-45.4 13.54c0 .9-.73 1.64-1.64 1.64H42.12c-.9 0-1.64-.73-1.64-1.64v-4.47c.09-5.48.67-10.73 1.89-13.12.73-1.44 1.93-2.22 3.31-2.64 2.61-.78 7.19-.25 9.14-.34 0 0 5.87.23 5.87-3.09 0-2.68-2.62-2.47-2.62-2.47-2.89.07-5.1-.12-6.52-.68-2.39-.94-2.47-2.67-2.48-3.24-.12-6.66-9.94-7.46-18.6-5.81-9.46 1.8.1 15.37.1 33.47v2.42c-.02.89-.74 1.6-1.63 1.61h-9.72c-.9 0-1.64-.73-1.64-1.64V38.86c0-.9.73-1.64 1.64-1.64h9.14c.9 0 1.64.73 1.64 1.64 0 1.34 1.51 2.09 2.6 1.31 3.29-2.35 7.5-3.61 12.22-3.61 10.57 0 18.57 6.16 18.57 19.81v24.01ZM45.84 51.5c0-1.93-1.57-3.5-3.5-3.5s-3.5 1.57-3.5 3.5 1.57 3.5 3.5 3.5 3.5-1.57 3.5-3.5Z"/></svg>