<?xml version="1.0" encoding="UTF-8"?><svg id="_8" xmlns="http://www.w3.org/2000/svg" viewBox="0 0 927.56 361.95"><defs><style>.cls-1{fill:#fff;}</style></defs><path class="cls-1" d="m854.93,0H72.63C32.58,0,0,32.58,0,72.63v216.69C0,329.37,32.58,361.95,72.63,361.95h782.3c40.05,0,72.63-32.58,72.63-72.63V72.63C927.56,32.58,894.98,0,854.93,0ZM140.77,187.59c0-7,5.67-12.67,12.67-12.67s12.67,5.68,12.67,12.67-5.67,12.68-12.67,12.68-12.67-5.68-12.67-12.68Zm88.94,104.66c0,3.27-2.65,5.92-5.92,5.92h-71.12c-3.27,0-5.92-2.65-5.92-5.92v-16.2c.33-19.87,2.43-38.89,6.84-47.54,2.65-5.2,7-8.04,12.01-9.55,9.46-2.84,26.06-.9,33.11-1.23,0,0,21.29.85,21.29-11.21,0-9.7-9.51-8.94-9.51-8.94-10.49.27-18.47-.44-23.65-2.48-8.67-3.41-8.95-9.66-8.99-11.75-.42-24.15-36.03-27.04-67.4-21.06-34.29,6.53.38,55.68.38,121.3v8.76c-.06,3.22-2.67,5.82-5.9,5.82h-35.22c-3.27,0-5.92-2.65-5.92-5.92v-150.46c0-3.27,2.65-5.92,5.92-5.92h33.11c3.27,0,5.92,2.65,5.92,5.92,0,4.86,5.46,7.57,9.41,4.74,11.91-8.53,27.19-13.07,44.29-13.07,38.31,0,67.28,22.33,67.28,71.8v87Zm121.56,8.34c-51.59,0-89.3-34.69-89.3-83.57s37.71-83.57,89.3-83.57,89,34.69,89,83.57-37.41,83.57-89,83.57Zm174.96,0c-24.75,0-49.74-6.13-65.48-14.63-2.77-1.5-3.88-4.88-2.55-7.74l10.7-23.04c1.43-3.07,5.11-4.33,8.1-2.73,14.23,7.6,33.46,12.54,51.05,12.54,21.72,0,29.87-5.73,29.87-14.79,0-26.55-98.05.61-98.05-64.26,0-30.77,27.75-52.49,75.12-52.49,19.93,0,41.78,4.09,57.19,11.4,2.97,1.41,4.25,4.93,2.86,7.91l-10.73,22.9c-1.39,2.97-4.93,4.08-7.88,2.65-14.2-6.89-28.29-9.27-41.43-9.27-21.12,0-30.17,6.64-30.17,15.09,0,27.75,98.05.9,98.05,64.86,0,30.17-28.06,51.59-76.63,51.59Zm208.3-7.44c-9.3,5.04-21.46,7.47-33.84,7.47-38.31,0-60.64-19.61-60.64-58.23v-97.01c0-3.24-2.62-5.86-5.86-5.86h-13.31c-3.24,0-5.86-2.62-5.86-5.86v-24.48c0-3.24,2.62-5.86,5.86-5.86h13.31c3.24,0,5.86-2.62,5.86-5.86v-27.8c0-3.24,2.62-5.86,5.86-5.86h35.34c3.24,0,5.86,2.62,5.86,5.86v27.8c0,3.24,2.62,5.86,5.86,5.86h28.7c3.24,0,5.86,2.62,5.86,5.86v24.48c0,3.24-2.62,5.86-5.86,5.86h-28.7c-3.24,0-5.86,2.62-5.86,5.86v96.41c0,13.88,7.54,21.42,20.21,21.42,4.63,0,9.25-.94,13.34-2.72,3.19-1.39,6.89-.11,8.13,3.14l8.48,22.21c1.06,2.78-.12,5.9-2.74,7.32Zm129.26-122.63c0,3.39-2.85,6.11-6.24,5.91-1.41-.08-2.81-.13-4.32-.13-25.95,0-43.14,14.18-43.14,45.25v70.7c0,3.27-2.65,5.92-5.92,5.92h-35.22c-3.27,0-5.92-2.65-5.92-5.92v-150.46c0-3.27,2.65-5.92,5.92-5.92h33.11c3.27,0,5.92,2.65,5.92,5.92v.88c0,5.06,5.79,7.62,9.76,4.49,10.21-8.06,23.75-12.64,39.96-13.54,3.33-.19,6.09,2.59,6.09,5.92v30.98Z"/><path class="cls-1" d="m368.94,157.64c-24.75-6.57-57.89,37.34-64.37,61.74-6.48,24.4,8.33,49.51,33.09,56.08,24.75,6.57,50.07-7.88,56.55-32.29,6.48-24.4-.51-78.97-25.27-85.54Z"/></svg>