<svg xmlns="http://www.w3.org/2000/svg" viewBox="0 0 256 100"><path fill="#fff" d="M101.83 43.56c6.83 1.81 8.76 16.87 6.97 23.61a12.7 12.7 0 0 1-15.61 8.91 12.7 12.7 0 0 1-9.13-15.48c1.79-6.73 10.94-18.85 17.77-17.04Z"/><path fill="#fff" d="M255.77 17.05a19.35 19.35 0 0 0-1.42-4.94l-.3-.66A20 20 0 0 0 235.95 0H20.05c-7.99 0-14.9 4.68-18.1 11.45l-.3.66A19.35 19.35 0 0 0 0 20.1v59.81a19.82 19.82 0 0 0 1.72 8.14A20 20 0 0 0 20.05 100h215.9a20 20 0 0 0 19.64-16.06c.27-1.3.41-2.65.41-4.03V20.1c0-1.04-.08-2.05-.23-3.05ZM238.4 47.12c0 .93-.78 1.68-1.72 1.63-.39-.02-.77-.04-1.19-.04-7.16 0-11.91 3.92-11.91 12.49v19.51c0 .91-.73 1.64-1.63 1.64h-9.72c-.9 0-1.64-.73-1.64-1.64V39.19c0-.9.74-1.63 1.64-1.63h9.14c.9 0 1.63.73 1.63 1.63v.24c0 1.4 1.6 2.1 2.69 1.24 2.82-2.22 6.56-3.49 11.03-3.74.92-.05 1.68.72 1.68 1.64v8.55ZM17.61 80.71V39.19c0-.9.73-1.63 1.63-1.63h9.14c.9 0 1.63.73 1.63 1.63a1.63 1.63 0 0 0 2.6 1.31c3.29-2.36 7.51-3.61 12.23-3.61 10.57 0 18.56 6.16 18.56 19.82v24c0 .91-.73 1.64-1.63 1.64H42.14c-.9 0-1.63-.73-1.63-1.64v-4.47c.09-5.48.67-10.73 1.88-13.12a5.17 5.17 0 0 1 3.32-2.63c2.61-.79 7.19-.25 9.14-.34 0 0 5.87.23 5.87-3.1 0-2.67-2.62-2.46-2.62-2.46-2.9.07-5.1-.12-6.53-.69-2.39-.94-2.47-2.66-2.48-3.24-.12-6.67-9.95-7.46-18.6-5.81-9.47 1.8.1 15.36.1 33.47v2.42a1.64 1.64 0 0 1-1.63 1.61h-9.72c-.9 0-1.63-.73-1.63-1.64Zm175.78 2.31c-10.57 0-16.74-5.41-16.74-16.07V40.18c0-.89-.72-1.62-1.61-1.62h-3.68c-.89 0-1.62-.72-1.62-1.61v-6.76c0-.9.73-1.62 1.62-1.62h3.68c.89 0 1.61-.72 1.61-1.62v-7.67c0-.89.73-1.62 1.62-1.62h9.75c.9 0 1.62.73 1.62 1.62v7.67c0 .9.72 1.62 1.62 1.62h7.92c.89 0 1.62.72 1.62 1.62v6.76c0 .89-.73 1.61-1.62 1.61h-7.92c-.9 0-1.62.73-1.62 1.62v26.61c0 3.83 2.08 5.91 5.58 5.91 1.28 0 2.55-.26 3.68-.75.88-.38 1.9-.03 2.24.87l2.34 6.13c.3.76-.03 1.62-.75 2.02-2.57 1.38-5.92 2.05-9.34 2.05Zm-66.47-31.65c0-8.49 7.66-14.48 20.74-14.48 5.5 0 11.53 1.13 15.78 3.14.82.39 1.17 1.36.79 2.19l-2.96 6.32a1.61 1.61 0 0 1-2.18.73 25.83 25.83 0 0 0-11.43-2.56c-5.83 0-8.33 1.83-8.33 4.16 0 7.66 27.06.25 27.06 17.91 0 8.32-7.74 14.23-21.15 14.23-6.83.01-13.73-1.69-18.07-4.03a1.65 1.65 0 0 1-.71-2.14l2.96-6.36a1.62 1.62 0 0 1 2.23-.75 31.47 31.47 0 0 0 14.09 3.46c6 0 8.25-1.58 8.25-4.08 0-7.33-27.07.17-27.07-17.74Zm-5.41 8.58c0 13.49-10.32 23.07-24.56 23.07S72.3 73.44 72.3 59.95s10.41-23.06 24.65-23.06 24.56 9.57 24.56 23.06Zm-82.66-8.12a3.5 3.5 0 1 1 7 0 3.5 3.5 0 0 1-7 0Z"/></svg>